<?xml version="1.0" encoding="UTF-8"?>
<svg width="24px" height="25px" viewBox="0 0 24 25" version="1.1" xmlns="http://www.w3.org/2000/svg" xmlns:xlink="http://www.w3.org/1999/xlink">
    <!-- Generator: Sketch 48.2 (47327) - http://www.bohemiancoding.com/sketch -->
    <title>Layer 1</title>
    <desc>Created with Sketch.</desc>
    <defs></defs>
    <g id="Page-1" stroke="none" stroke-width="1" fill="none" fill-rule="evenodd">
        <g id="linkedin" transform="translate(-1.000000, -1.000000)" fill-rule="nonzero">
            <g id="Layer-1" transform="translate(1.000000, 1.000000)">
                <rect id="svg_2" stroke-opacity="0" stroke="#000000" fill="#FFFFFF" x="5.58975" y="5.41881" width="14.01709" height="12.13675"></rect>
                <path d="M12,0.17094 C5.373,0.17094 0,5.54394 0,12.17094 C0,18.79794 5.373,24.17094 12,24.17094 C18.627,24.17094 24,18.79794 24,12.17094 C24,5.54394 18.627,0.17094 12,0.17094 Z M10,16.17094 L8,16.17094 L8,10.17094 L10,10.17094 L10,16.17094 Z M9,9.27994 C8.393,9.27994 7.9,8.78394 7.9,8.17094 C7.9,7.55894 8.392,7.06194 9,7.06194 C9.608,7.06194 10.1,7.55894 10.1,8.17094 C10.1,8.78394 9.607,9.27994 9,9.27994 Z M17,16.17094 L15.002,16.17094 L15.002,13.30994 C15.002,11.42894 13,11.58794 13,13.30994 L13,16.17094 L11,16.17094 L11,10.17094 L13,10.17094 L13,11.26394 C13.872,9.64794 17,9.52794 17,12.81194 L17,16.17094 Z" id="svg_1" fill="#626569"></path>
            </g>
        </g>
    </g>
</svg>